<?xml version="1.0" encoding="utf-8"?>
<svg viewBox="13.503 150.021 758.655 204.277" xmlns="http://www.w3.org/2000/svg">
  <defs>
    <linearGradient gradientUnits="userSpaceOnUse" x1="486.3" y1="180.719" x2="486.3" y2="332.071" id="gradient-0" gradientTransform="matrix(-0.091084, 0.950284, -2.775393, -0.242235, 1142.176118, -121.192048)">
      <stop offset="0" style="stop-color: rgba(17, 185, 109, 1)"/>
      <stop offset="1" style="stop-color: rgba(8, 92, 54, 1)"/>
    </linearGradient>
  </defs>
  <path d="M 314.402 277.577 Q 317.45 284.893 317.45 288.145 Q 317.45 295.867 304.85 301.151 Q 298.347 303.996 294.384 303.996 Q 290.421 303.996 287.881 302.066 Q 285.34 300.135 284.121 298.103 Q 282.089 294.241 268.269 261.318 L 261.969 261.725 L 236.362 261.725 L 236.362 284.69 Q 236.362 289.364 236.058 291.701 Q 235.753 294.038 234.127 297.087 Q 231.282 302.574 218.275 302.574 Q 204.049 302.574 201.61 295.054 Q 200.391 291.599 200.391 284.486 L 200.391 171.695 Q 200.391 167.021 200.696 164.684 Q 201.001 162.346 202.627 159.298 Q 205.472 153.811 218.478 153.811 L 262.376 153.811 Q 280.26 153.811 297.128 166.817 Q 305.257 173.118 310.541 183.889 Q 315.825 194.66 315.825 207.87 Q 315.825 230.834 300.583 245.67 Q 305.054 256.441 314.402 277.577 Z M 236.362 225.754 L 262.376 225.754 Q 268.269 225.754 274.163 221.283 Q 280.056 216.812 280.056 207.87 Q 280.056 198.928 274.163 194.355 Q 268.269 189.782 261.969 189.782 L 236.362 189.782 Z" transform="matrix(0.793535, 0, 0, 0.831579, -139.063705, 62.329079)" style="fill: url(#gradient-0); white-space: pre;"/>
  <path d="M 427.787 236.423 Q 427.787 236.423 427.787 242.672 Q 427.787 248.922 421.589 254.917 Q 415.391 260.912 407.871 260.912 L 359.706 260.912 Q 359.706 266.602 366.413 270.464 Q 373.119 274.325 379.826 274.325 Q 391.613 274.325 398.319 271.886 L 400.555 271.073 Q 405.432 268.838 408.684 268.838 Q 415.187 268.838 419.862 277.983 Q 422.504 283.47 422.504 287.332 Q 422.504 305.419 379.216 305.419 Q 364.177 305.419 352.491 300.237 Q 340.806 295.054 334.303 286.519 Q 321.499 270.057 321.499 249.735 Q 321.499 224.128 338.062 208.784 Q 354.625 193.44 379.419 193.44 Q 407.668 193.44 420.878 213.357 Q 427.787 223.925 427.787 236.423 Z M 384.906 242.418 Q 392.629 242.418 392.629 235.915 Q 392.629 231.241 389.072 228.396 Q 385.516 225.55 378.911 225.55 Q 372.306 225.55 365.803 230.936 Q 359.3 236.321 359.3 242.418 Z" transform="matrix(0.793535, 0, 0, 0.831579, -139.063705, 62.329079)" style="fill: url(#gradient-0); white-space: pre;"/>
  <path d="M 510.48 207.057 Q 511.699 195.676 526.535 195.676 Q 534.46 195.676 538.322 196.895 Q 542.183 198.115 543.707 201.163 Q 545.232 204.211 545.536 206.549 Q 545.841 208.886 545.841 213.56 L 545.841 284.69 Q 545.841 289.364 545.536 291.701 Q 545.232 294.038 543.809 297.087 Q 540.964 302.371 529.888 302.371 Q 518.812 302.371 515.052 299.627 Q 511.292 296.883 510.683 291.599 Q 503.163 302.371 485.584 302.371 Q 468.005 302.371 452.966 286.316 Q 437.927 270.261 437.927 249.023 Q 437.927 227.786 453.068 211.832 Q 468.208 195.879 486.295 195.879 Q 493.205 195.879 498.896 198.318 Q 504.586 200.757 506.821 202.89 Q 509.057 205.024 510.48 207.057 Z M 473.492 249.328 Q 473.492 249.328 473.492 252.681 Q 473.492 256.035 478.776 261.42 Q 484.06 266.806 491.579 266.806 Q 499.099 266.806 504.078 261.318 Q 509.057 255.831 509.057 249.226 Q 509.057 242.622 504.281 236.931 Q 499.505 231.241 491.478 231.241 Q 483.45 231.241 478.471 236.931 Q 473.492 242.622 473.492 249.328 Z" transform="matrix(0.793535, 0, 0, 0.831579, -139.063705, 62.329079)" style="fill: url(#gradient-0); white-space: pre;"/>
  <path d="M 633.936 151.067 Q 633.936 151.067 634.698 149.594 Q 635.46 148.121 639.321 146.901 Q 643.182 145.682 649.584 145.682 Q 655.986 145.682 659.847 146.901 Q 663.708 148.121 665.233 151.169 Q 666.757 154.217 667.062 156.554 Q 667.367 158.892 667.367 163.566 L 667.367 284.893 Q 667.367 289.567 667.062 291.904 Q 666.757 294.241 665.131 297.087 Q 662.083 302.574 647.958 302.574 Q 633.834 302.574 632.208 292.616 Q 623.673 302.371 608.43 302.371 Q 590.14 302.371 575.101 286.417 Q 560.062 270.464 560.062 249.226 Q 560.062 227.989 575.203 211.934 Q 590.343 195.879 608.43 195.879 Q 623.469 195.879 631.802 206.04 L 631.802 163.363 Q 631.802 158.688 632.106 156.351 Q 632.411 154.014 633.936 151.067 Z M 600.911 261.522 Q 600.911 261.522 603.553 264.265 Q 606.195 267.009 613.714 267.009 Q 621.234 267.009 626.213 261.522 Q 631.192 256.035 631.192 249.43 Q 631.192 242.825 626.416 237.134 Q 621.64 231.444 613.511 231.444 Q 605.382 231.444 600.505 237.033 Q 595.627 242.622 595.627 249.328 Q 595.627 256.035 600.911 261.522 Z" transform="matrix(0.793535, 0, 0, 0.831579, -139.063705, 62.329079)" style="fill: url(#gradient-0); white-space: pre;"/>
  <path d="M 683.617 213.56 Q 683.617 208.886 683.922 206.549 Q 684.227 204.211 685.649 201.163 Q 688.495 195.879 701.501 195.879 Q 711.256 195.879 715.321 199.334 Q 718.776 202.179 718.979 208.073 Q 719.182 210.105 719.182 213.966 L 719.182 285.096 Q 719.182 289.77 718.877 292.108 Q 718.572 294.445 716.946 297.493 Q 714.305 302.777 701.298 302.777 Q 688.495 302.777 685.649 297.29 Q 684.227 294.241 683.922 292.006 Q 683.617 289.77 683.617 284.893 Z M 717.048 175.861 Q 717.048 175.861 716.286 177.335 Q 715.524 178.808 711.663 180.027 Q 707.801 181.247 701.4 181.247 Q 694.998 181.247 691.137 180.027 Q 687.275 178.808 685.751 175.76 Q 684.227 172.711 683.922 170.374 Q 683.617 168.037 683.617 163.363 Q 683.617 158.688 683.922 156.351 Q 684.227 154.014 685.649 151.169 Q 688.495 145.682 701.501 145.682 Q 714.305 145.682 716.946 151.169 Q 718.572 154.217 718.877 156.554 Q 719.182 158.892 719.182 163.566 Q 719.182 168.24 718.877 170.577 Q 718.572 172.914 717.048 175.861 Z" transform="matrix(0.793535, 0, 0, 0.831579, -139.063705, 62.329079)" style="fill: url(#gradient-0); white-space: pre;"/>
  <path d="M 794.975 195.676 Q 815.298 195.676 828.812 211.223 Q 842.327 226.77 842.327 249.125 L 842.327 284.893 Q 842.327 289.567 842.022 291.904 Q 841.717 294.241 840.295 297.087 Q 837.45 302.574 824.443 302.574 Q 810.014 302.574 807.778 295.054 Q 806.559 291.599 806.559 284.69 L 806.559 248.922 Q 806.559 240.589 801.783 235.915 Q 797.007 231.241 788.98 231.241 Q 780.952 231.241 775.973 236.118 Q 770.994 240.996 770.994 248.922 L 770.994 284.893 Q 770.994 289.567 770.689 291.904 Q 770.384 294.241 768.758 297.087 Q 766.116 302.574 753.11 302.574 Q 740.307 302.574 737.461 297.087 Q 736.039 294.038 735.734 291.701 Q 735.429 289.364 735.429 284.69 L 735.429 212.747 Q 735.429 208.276 735.734 205.939 Q 736.039 203.602 737.665 200.757 Q 740.51 195.676 753.313 195.676 Q 765.71 195.676 768.555 200.35 Q 770.587 203.805 770.587 208.682 Q 771.4 207.26 774.246 204.618 Q 777.091 201.976 779.733 200.35 Q 786.643 195.676 794.975 195.676 Z" transform="matrix(0.793535, 0, 0, 0.831579, -139.063705, 62.329079)" style="fill: url(#gradient-0); white-space: pre;"/>
  <path d="M 926.464 289.364 Q 918.741 299.525 901.873 299.525 Q 885.005 299.525 870.271 283.978 Q 855.537 268.431 855.537 247.702 Q 855.537 226.973 870.373 211.324 Q 885.209 195.676 902.89 195.676 Q 909.799 195.676 915.49 198.216 Q 921.18 200.757 923.314 202.89 Q 925.448 205.024 926.667 206.853 Q 927.277 201.163 930.833 198.216 Q 934.39 195.269 942.316 195.269 Q 950.242 195.269 953.9 196.489 Q 957.558 197.708 959.082 200.655 Q 960.606 203.602 960.911 205.837 Q 961.216 208.073 961.216 212.747 L 961.216 296.883 Q 961.216 320.255 944.958 334.582 Q 928.7 348.91 908.377 348.91 Q 892.931 348.91 878.909 341.39 Q 864.886 333.871 864.886 327.774 Q 864.886 319.848 870.983 313.751 Q 874.844 309.484 876.978 307.858 Q 879.112 306.232 881.957 306.232 Q 884.802 306.232 887.851 308.671 Q 897.606 316.19 908.986 316.19 Q 916.709 316.19 921.587 310.093 Q 926.464 303.996 926.464 295.461 Z M 890.289 247.804 Q 890.289 247.804 890.289 251.106 Q 890.289 254.409 895.472 259.693 Q 900.654 264.977 908.072 264.977 Q 915.49 264.977 920.367 259.591 Q 925.245 254.206 925.245 247.804 Q 925.245 241.402 920.57 235.813 Q 915.896 230.225 907.97 230.225 Q 900.044 230.225 895.167 235.712 Q 890.289 241.199 890.289 247.804 Z" transform="matrix(0.793535, 0, 0, 0.831579, -139.063705, 62.329079)" style="fill: url(#gradient-0); white-space: pre;"/>
  <path d="M 977.455 163.159 Q 977.455 158.485 977.76 156.148 Q 978.065 153.811 979.488 150.762 Q 982.333 145.275 995.339 145.275 Q 1007.736 145.275 1010.785 150.762 Q 1012.411 153.811 1012.715 156.25 Q 1013.02 158.688 1013.02 163.363 L 1013.02 257.457 Q 1013.02 264.773 1014.24 266.704 Q 1015.459 268.635 1019.625 268.635 Q 1023.791 268.635 1025.214 268.94 Q 1026.637 269.244 1028.669 270.667 Q 1032.733 273.309 1032.733 285.096 Q 1032.733 297.9 1028.669 300.745 Q 1023.385 304.403 1003.469 301.964 Q 987.82 299.932 983.146 291.599 Q 977.455 281.641 977.455 259.896 Z" transform="matrix(0.793535, 0, 0, 0.831579, -139.063705, 62.329079)" style="fill: url(#gradient-0); white-space: pre;"/>
  <path d="M 1133.329 196.895 Q 1145.319 202.179 1145.319 209.699 Q 1145.319 213.357 1143.693 216.608 Q 1142.067 219.86 1142.067 220.063 L 1088.822 339.155 Q 1087.196 343.016 1086.078 345.048 Q 1084.96 347.081 1082.522 348.91 Q 1080.083 350.739 1076.425 350.739 Q 1072.767 350.739 1065.654 347.69 Q 1053.663 342.406 1053.663 335.09 Q 1053.663 330.213 1073.173 288.551 L 1032.731 220.47 Q 1028.666 213.763 1028.666 210.511 Q 1028.666 204.008 1039.64 197.505 Q 1046.55 193.44 1050.411 193.44 Q 1054.273 193.44 1056.712 195.066 Q 1059.15 196.692 1060.268 198.419 Q 1061.386 200.147 1071.446 217.32 Q 1081.505 234.492 1090.651 249.328 Q 1091.667 246.076 1101.625 224.229 Q 1111.583 202.382 1112.294 200.96 Q 1113.006 199.537 1114.632 197.505 Q 1117.274 194.05 1122.049 194.05 Q 1126.825 194.05 1133.329 196.895 Z" transform="matrix(0.793535, 0, 0, 0.831579, -139.063705, 62.329079)" style="fill: url(#gradient-0); white-space: pre;"/>
</svg>