<?xml version="1.0" encoding="utf-8"?>
<svg viewBox="0 0 500 500" xmlns="http://www.w3.org/2000/svg">
  <defs>
    <linearGradient gradientUnits="userSpaceOnUse" x1="250" y1="229.129" x2="250" y2="270.87" id="gradient-0" gradientTransform="matrix(0.267645, 0.963518, -6.127611, 1.702122, 1692.786223, -409.748871)">
      <stop offset="0" style="stop-color: rgba(31, 198, 81, 1)"/>
      <stop offset="1" style="stop-color: rgba(17, 110, 45, 1)"/>
    </linearGradient>
  </defs>
  <path d="M 188.617 258.537 Q 189.142 259.797 189.142 260.357 Q 189.142 261.687 186.972 262.597 Q 185.852 263.087 185.17 263.087 Q 184.487 263.087 184.05 262.755 Q 183.612 262.422 183.402 262.072 Q 183.052 261.407 180.672 255.737 L 179.587 255.807 L 175.177 255.807 L 175.177 259.762 Q 175.177 260.567 175.125 260.97 Q 175.072 261.372 174.792 261.897 Q 174.302 262.842 172.062 262.842 Q 169.612 262.842 169.192 261.547 Q 168.982 260.952 168.982 259.727 L 168.982 240.302 Q 168.982 239.497 169.035 239.095 Q 169.087 238.692 169.367 238.167 Q 169.857 237.222 172.097 237.222 L 179.657 237.222 Q 182.737 237.222 185.642 239.462 Q 187.042 240.547 187.952 242.402 Q 188.862 244.257 188.862 246.532 Q 188.862 250.487 186.237 253.042 Q 187.007 254.897 188.617 258.537 Z M 175.177 249.612 L 179.657 249.612 Q 180.672 249.612 181.687 248.842 Q 182.702 248.072 182.702 246.532 Q 182.702 244.992 181.687 244.205 Q 180.672 243.417 179.587 243.417 L 175.177 243.417 Z" style="fill: url(#gradient-0); paint-order: fill; white-space: pre;"/>
  <path d="M 208.137 251.45 Q 208.137 251.45 208.137 252.526 Q 208.137 253.602 207.07 254.635 Q 206.002 255.667 204.707 255.667 L 196.412 255.667 Q 196.412 256.647 197.567 257.312 Q 198.722 257.977 199.877 257.977 Q 201.907 257.977 203.062 257.557 L 203.447 257.417 Q 204.287 257.032 204.847 257.032 Q 205.967 257.032 206.772 258.607 Q 207.227 259.552 207.227 260.217 Q 207.227 263.332 199.772 263.332 Q 197.182 263.332 195.17 262.44 Q 193.157 261.547 192.037 260.077 Q 189.832 257.242 189.832 253.742 Q 189.832 249.332 192.685 246.69 Q 195.537 244.047 199.807 244.047 Q 204.672 244.047 206.947 247.477 Q 208.137 249.297 208.137 251.45 Z M 200.752 252.482 Q 202.082 252.482 202.082 251.362 Q 202.082 250.557 201.47 250.067 Q 200.857 249.577 199.72 249.577 Q 198.582 249.577 197.462 250.505 Q 196.342 251.432 196.342 252.482 Z" style="fill: url(#gradient-0); paint-order: fill; white-space: pre;"/>
  <path d="M 222.39 246.392 Q 222.6 244.432 225.155 244.432 Q 226.52 244.432 227.185 244.642 Q 227.85 244.852 228.112 245.377 Q 228.375 245.902 228.427 246.305 Q 228.48 246.707 228.48 247.512 L 228.48 259.762 Q 228.48 260.567 228.427 260.97 Q 228.375 261.372 228.13 261.897 Q 227.64 262.807 225.732 262.807 Q 223.825 262.807 223.177 262.335 Q 222.53 261.862 222.425 260.952 Q 221.13 262.807 218.102 262.807 Q 215.075 262.807 212.485 260.042 Q 209.895 257.277 209.895 253.62 Q 209.895 249.962 212.502 247.215 Q 215.11 244.467 218.225 244.467 Q 219.415 244.467 220.395 244.887 Q 221.375 245.307 221.76 245.675 Q 222.145 246.042 222.39 246.392 Z M 216.02 253.672 Q 216.02 253.672 216.02 254.25 Q 216.02 254.827 216.93 255.755 Q 217.84 256.682 219.135 256.682 Q 220.43 256.682 221.287 255.737 Q 222.145 254.792 222.145 253.655 Q 222.145 252.517 221.322 251.537 Q 220.5 250.557 219.117 250.557 Q 217.735 250.557 216.877 251.537 Q 216.02 252.517 216.02 253.672 Z" style="fill: url(#gradient-0); paint-order: fill; white-space: pre;"/>
  <path d="M 243.651 236.75 Q 243.651 236.75 243.783 236.496 Q 243.914 236.242 244.579 236.032 Q 245.244 235.822 246.346 235.822 Q 247.449 235.822 248.114 236.032 Q 248.779 236.242 249.041 236.767 Q 249.304 237.292 249.356 237.695 Q 249.409 238.097 249.409 238.902 L 249.409 259.797 Q 249.409 260.602 249.356 261.005 Q 249.304 261.407 249.024 261.897 Q 248.499 262.842 246.066 262.842 Q 243.634 262.842 243.354 261.127 Q 241.884 262.807 239.259 262.807 Q 236.109 262.807 233.519 260.06 Q 230.929 257.312 230.929 253.655 Q 230.929 249.997 233.536 247.232 Q 236.144 244.467 239.259 244.467 Q 241.849 244.467 243.284 246.217 L 243.284 238.867 Q 243.284 238.062 243.336 237.66 Q 243.389 237.257 243.651 236.75 Z M 237.964 255.772 Q 237.964 255.772 238.419 256.245 Q 238.874 256.717 240.169 256.717 Q 241.464 256.717 242.321 255.772 Q 243.179 254.827 243.179 253.69 Q 243.179 252.552 242.356 251.572 Q 241.534 250.592 240.134 250.592 Q 238.734 250.592 237.894 251.555 Q 237.054 252.517 237.054 253.672 Q 237.054 254.827 237.964 255.772 Z" style="fill: url(#gradient-0); paint-order: fill; white-space: pre;"/>
  <path d="M 252.201 247.512 Q 252.201 246.707 252.253 246.305 Q 252.306 245.902 252.551 245.377 Q 253.041 244.467 255.281 244.467 Q 256.961 244.467 257.661 245.062 Q 258.256 245.552 258.291 246.567 Q 258.326 246.917 258.326 247.582 L 258.326 259.832 Q 258.326 260.637 258.273 261.04 Q 258.221 261.442 257.941 261.967 Q 257.486 262.877 255.246 262.877 Q 253.041 262.877 252.551 261.932 Q 252.306 261.407 252.253 261.022 Q 252.201 260.637 252.201 259.797 Z M 257.958 241.02 Q 257.958 241.02 257.827 241.273 Q 257.696 241.527 257.031 241.737 Q 256.366 241.947 255.263 241.947 Q 254.161 241.947 253.496 241.737 Q 252.831 241.527 252.568 241.002 Q 252.306 240.477 252.253 240.075 Q 252.201 239.672 252.201 238.867 Q 252.201 238.062 252.253 237.66 Q 252.306 237.257 252.551 236.767 Q 253.041 235.822 255.281 235.822 Q 257.486 235.822 257.941 236.767 Q 258.221 237.292 258.273 237.695 Q 258.326 238.097 258.326 238.902 Q 258.326 239.707 258.273 240.11 Q 258.221 240.512 257.958 241.02 Z" style="fill: url(#gradient-0); paint-order: fill; white-space: pre;"/>
  <path d="M 271.378 244.432 Q 274.878 244.432 277.205 247.11 Q 279.533 249.787 279.533 253.637 L 279.533 259.797 Q 279.533 260.602 279.48 261.005 Q 279.428 261.407 279.183 261.897 Q 278.693 262.842 276.453 262.842 Q 273.968 262.842 273.583 261.547 Q 273.373 260.952 273.373 259.762 L 273.373 253.602 Q 273.373 252.167 272.55 251.362 Q 271.728 250.557 270.345 250.557 Q 268.963 250.557 268.105 251.397 Q 267.248 252.237 267.248 253.602 L 267.248 259.797 Q 267.248 260.602 267.195 261.005 Q 267.143 261.407 266.863 261.897 Q 266.408 262.842 264.168 262.842 Q 261.963 262.842 261.473 261.897 Q 261.228 261.372 261.175 260.97 Q 261.123 260.567 261.123 259.762 L 261.123 247.372 Q 261.123 246.602 261.175 246.2 Q 261.228 245.797 261.508 245.307 Q 261.998 244.432 264.203 244.432 Q 266.338 244.432 266.828 245.237 Q 267.178 245.832 267.178 246.672 Q 267.318 246.427 267.808 245.972 Q 268.298 245.517 268.753 245.237 Q 269.943 244.432 271.378 244.432 Z" style="fill: url(#gradient-0); paint-order: fill; white-space: pre;"/>
  <path d="M 294.031 260.567 Q 292.701 262.317 289.796 262.317 Q 286.891 262.317 284.354 259.64 Q 281.816 256.962 281.816 253.392 Q 281.816 249.822 284.371 247.127 Q 286.926 244.432 289.971 244.432 Q 291.161 244.432 292.141 244.87 Q 293.121 245.307 293.489 245.675 Q 293.856 246.042 294.066 246.357 Q 294.171 245.377 294.784 244.87 Q 295.396 244.362 296.761 244.362 Q 298.126 244.362 298.756 244.572 Q 299.386 244.782 299.649 245.29 Q 299.911 245.797 299.964 246.182 Q 300.016 246.567 300.016 247.372 L 300.016 261.862 Q 300.016 265.887 297.216 268.355 Q 294.416 270.822 290.916 270.822 Q 288.256 270.822 285.841 269.527 Q 283.426 268.232 283.426 267.182 Q 283.426 265.817 284.476 264.767 Q 285.141 264.032 285.509 263.752 Q 285.876 263.472 286.366 263.472 Q 286.856 263.472 287.381 263.892 Q 289.061 265.187 291.021 265.187 Q 292.351 265.187 293.191 264.137 Q 294.031 263.087 294.031 261.617 Z M 287.801 253.41 Q 287.801 253.41 287.801 253.978 Q 287.801 254.547 288.694 255.457 Q 289.586 256.367 290.864 256.367 Q 292.141 256.367 292.981 255.44 Q 293.821 254.512 293.821 253.41 Q 293.821 252.307 293.016 251.345 Q 292.211 250.382 290.846 250.382 Q 289.481 250.382 288.641 251.327 Q 287.801 252.272 287.801 253.41 Z" style="fill: url(#gradient-0); paint-order: fill; white-space: pre;"/>
  <path d="M 302.81 238.832 Q 302.81 238.027 302.863 237.625 Q 302.915 237.222 303.16 236.697 Q 303.65 235.752 305.89 235.752 Q 308.025 235.752 308.55 236.697 Q 308.83 237.222 308.883 237.642 Q 308.935 238.062 308.935 238.867 L 308.935 255.072 Q 308.935 256.332 309.145 256.665 Q 309.355 256.997 310.073 256.997 Q 310.79 256.997 311.035 257.05 Q 311.28 257.102 311.63 257.347 Q 312.33 257.802 312.33 259.832 Q 312.33 262.037 311.63 262.527 Q 310.72 263.157 307.29 262.737 Q 304.595 262.387 303.79 260.952 Q 302.81 259.237 302.81 255.492 Z" style="fill: url(#gradient-0); paint-order: fill; white-space: pre;"/>
  <path d="M 329.663 244.642 Q 331.728 245.552 331.728 246.847 Q 331.728 247.477 331.448 248.037 Q 331.168 248.597 331.168 248.632 L 321.998 269.142 Q 321.718 269.807 321.526 270.157 Q 321.333 270.507 320.913 270.822 Q 320.493 271.137 319.863 271.137 Q 319.233 271.137 318.008 270.612 Q 315.943 269.702 315.943 268.442 Q 315.943 267.602 319.303 260.427 L 312.338 248.702 Q 311.638 247.547 311.638 246.987 Q 311.638 245.867 313.528 244.747 Q 314.718 244.047 315.383 244.047 Q 316.048 244.047 316.468 244.327 Q 316.888 244.607 317.081 244.905 Q 317.273 245.202 319.006 248.16 Q 320.738 251.117 322.313 253.672 Q 322.488 253.112 324.203 249.35 Q 325.918 245.587 326.041 245.342 Q 326.163 245.097 326.443 244.747 Q 326.898 244.152 327.721 244.152 Q 328.543 244.152 329.663 244.642 Z" style="fill: url(#gradient-0); paint-order: fill; white-space: pre;"/>
</svg>